<svg height="240" viewBox="0 0 480 480.12037" width="240" xmlns="http://www.w3.org/2000/svg" xmlns:xlink="http://www.w3.org/1999/xlink">
<linearGradient id="a"><stop offset="0" stop-color="#20d6de"/><stop offset="1" stop-color="#c24ad2"/></linearGradient>
<linearGradient id="b" gradientUnits="userSpaceOnUse" x1="-23.936496" x2="482.343504" xlink:href="#a" y1="240" y2="240"/>
<linearGradient id="c" gradientUnits="userSpaceOnUse" x1="-23.936496" x2="482.343504" xlink:href="#a" y1="391.872" y2="391.872"/>
<linearGradient id="d" gradientUnits="userSpaceOnUse" x1="-23.936496" x2="482.343504" xlink:href="#a" y1="333.424" y2="333.424"/>
<linearGradient id="e" gradientUnits="userSpaceOnUse" x1="-23.936496" x2="482.343504" xlink:href="#a" y1="249.912" y2="249.912"/>
<linearGradient id="f" gradientUnits="userSpaceOnUse" x1="-23.936496" x2="482.343504" xlink:href="#a" y1="158.96" y2="158.96"/>
<linearGradient id="g" gradientUnits="userSpaceOnUse" x1="-23.936496" x2="482.343504" xlink:href="#a" y1="296" y2="296"/>
<path d="m6.464844 415.839844c2.855468.574218 63 12.3125 177.597656 15.40625v32.753906c-.015625 3.046875 1.699219 5.839844 4.425781 7.199219 16.367188 6.578125 33.953125 9.578125 51.574219 8.800781 17.625.777344 35.207031-2.222656 51.578125-8.800781 2.722656-1.359375 4.441406-4.152344 4.421875-7.199219v-32.753906c114.570312-3.09375 174.714844-14.832032 177.601562-15.40625 2.328126-.464844 4.332032-1.941406 5.464844-4.03125 1.132813-2.085938 1.277344-4.570313.398438-6.777344-48-119.917969-110.800782-191.367188-113.457032-194.34375-.925781-1.050781-2.117187-1.835938-3.445312-2.273438-.632812-.214843-5.929688-1.941406-15.128906-4.207031-8.242188-27.199219-30.402344-77.597656-83.402344-89.535156v-58.671875c-.023438-22.082031-17.917969-39.972656-40-40h-32.238281c-10.332031-13.773438-28.316407-19.390625-44.648438-13.949219-16.335937 5.445313-27.351562 20.730469-27.351562 37.949219s11.015625 32.503906 27.351562 37.949219c16.332031 5.441406 34.316407-.175781 44.648438-13.949219h24.207031v50.671875c-52.96875 12-75.160156 62.304687-83.398438 89.535156-9.199218 2.265625-14.496093 4-15.128906 4.207031-1.332031.4375-2.519531 1.222657-3.449218 2.273438-2.65625 2.976562-65.488282 74.402344-113.453126 194.34375-.882812 2.203125-.738281 4.683594.386719 6.769531 1.125 2.085938 3.121094 3.566407 5.445313 4.039063zm273.597656 42.671875c-12.960938 3.914062-26.460938 5.765625-40 5.488281-13.535156.273438-27.035156-1.574219-40-5.480469v-26.933593c12.800781.246093 25.976562.414062 40 .414062s27.199219-.167969 40-.414062zm-120-394.511719c-13.253906 0-24-10.746094-24-24s10.746094-24 24-24 24 10.746094 24 24-10.746094 24-24 24zm56-16h-16.800781c1.078125-5.277344 1.078125-10.722656 0-16h24.800781c13.253906 0 24 10.746094 24 24v56.457031c-2.648438-.183593-5.222656-.457031-8-.457031-2.773438 0-5.351562.273438-8 .457031v-48.457031c0-8.835938-7.164062-16-16-16zm24 80c54.160156 0 78.839844 43.664062 89.210938 72.257812-9.859376-1.898437-21.714844-3.777343-35.203126-5.273437l12.6875-6.738281c-3.21875-6.132813-7.035156-11.933594-11.398437-17.316406l-12.375 10.140624c3.4375 4.269532 6.464844 8.847657 9.046875 13.683594-17.261719-1.835937-34.609375-2.753906-51.96875-2.753906-29.929688-.066406-59.796875 2.699219-89.207031 8.257812 10.367187-28.59375 35.046875-72.257812 89.207031-72.257812zm-115.4375 94.960938c37.609375-10.269532 76.453125-15.300782 115.4375-14.960938 38.984375-.335938 77.832031 4.695312 115.441406 14.960938 43.628906 54.179687 79.121094 114.429687 105.359375 178.855468-73.132812 10.339844-146.945312 15.082032-220.800781 14.183594-73.851562.886719-147.664062-3.855469-220.800781-14.183594 26.261719-64.414062 61.753906-124.664062 105.363281-178.855468zm0 0" fill="url(#b)"/>
<path d="m240.0625 384v16c11.105469 0 21.8125-.082031 32.128906-.246094l-.257812-16c-10.238282.164063-20.863282.246094-31.871094.246094zm0 0" fill="url(#c)"/><path d="m414.0625 375.640625c-28.558594 3.046875-71.199219 6.488281-126.183594 7.800781l.367188 16c63.296875-1.519531 110.402344-5.816406 138.792968-9.160156 2.550782-.300781 4.800782-1.808594 6.050782-4.050781 1.25-2.246094 1.347656-4.953125.261718-7.277344-18.132812-38.957031-39.589843-76.277344-64.136718-111.546875l-13.113282 9.1875c21.898438 31.4375 41.277344 64.558594 57.960938 99.046875zm0 0" fill="url(#d)"/>
<path d="m357.449219 251.199219c-3.785157-5.023438-6.984375-9.101563-9.457031-12.175781l-12.464844 10.015624c2.398437 2.976563 5.480468 6.914063 9.136718 11.777344zm0 0" fill="url(#e)"/>
<path d="m286.953125 162.078125c-12.734375-11.8125-29.519531-18.285156-46.890625-18.078125v16c13.382812-.167969 26.320312 4.816406 36.128906 13.921875zm0 0" fill="url(#f)"/>
<g fill="url(#g)">
<path d="m312.0625 296c0-39.765625-32.234375-72-72-72-39.761719 0-72 32.234375-72 72s32.238281 72 72 72c39.746094-.042969 71.957031-32.253906 72-72zm-128 0c0-30.929688 25.074219-56 56-56 30.929688 0 56 25.070312 56 56s-25.070312 56-56 56c-30.910156-.039062-55.960938-25.089844-56-56zm0 0"/>
<path d="m280.0625 296c0-22.089844-17.90625-40-40-40-22.089844 0-40 17.910156-40 40s17.910156 40 40 40c22.082031-.027344 39.972656-17.917969 40-40zm-64 0c0-13.253906 10.746094-24 24-24s24 10.746094 24 24-10.746094 24-24 24-24-10.746094-24-24zm0 0"/>
</g>
</svg>